# xmcd CD database file
#
# Track frame offsets:
#	150
#	26499
#	65574
#	99706
#	143621
#	172595
#	199685
#	237193
#	251123
#
# Disc length: 3408 seconds
#
# Revision: 1
# Processed by: cddbd v1.5.1PL0 Copyright (c) Steve Scherf et al.
# Submitted via: CDex 1.51
#
DISCID=720d4e09
DTITLE=Francisco Lo Vuolo - Kuchiku
DYEAR=2005
DGENRE=Jazz
TTITLE0=I didn't know what time it was
TTITLE1=Kuchiku
TTITLE2=Bemsha swing
TTITLE3=Para Ernesto Jodos
TTITLE4=La Mesha
TTITLE5=Boo Boo's Birthday
TTITLE6=Toti y Chichi
TTITLE7=What is this thing called love
TTITLE8=Toti y Chichi
EXTD=YEAR: 2005
EXTT0=
EXTT1=
EXTT2=
EXTT3=
EXTT4=
EXTT5=
EXTT6=
EXTT7=
EXTT8=
PLAYORDER=
